<?xml version="1.0" encoding="UTF-8" standalone="no"?>
<svg width="227px" height="48px" viewBox="0 0 227 48" version="1.1" xmlns="http://www.w3.org/2000/svg" xmlns:xlink="http://www.w3.org/1999/xlink">
    <!-- Generator: Sketch 42 (36781) - http://www.bohemiancoding.com/sketch -->
    <title>enspire-logo</title>
    <desc>Created with Sketch.</desc>
    <defs></defs>
    <g id="Page-1" stroke="none" stroke-width="1" fill="none" fill-rule="evenodd">
        <g id="Enspire-Logo" fill="#FFFFFF">
            <path d="M33.5206996,40.6425295 C31.8464159,42.8467462 29.730339,44.547801 27.1724056,45.7457449 C24.6144721,46.9436887 21.9635627,47.5426517 19.2195977,47.5426517 C16.6151563,47.5426517 14.1619024,47.1113984 11.8597623,46.2488788 C9.55762217,45.3863592 7.55781328,44.1524955 5.86027562,42.5472508 C4.16273796,40.942006 2.82565643,39.0133453 1.84899093,36.7612108 C0.872325427,34.5090764 0.384,31.993432 0.384,29.2142022 C0.384,26.4349725 0.872325427,23.9193281 1.84899093,21.6671937 C2.82565643,19.4150592 4.16273796,17.4863985 5.86027562,15.8811537 C7.55781328,14.275909 9.55762217,13.0420453 11.8597623,12.1795257 C14.1619024,11.3170061 16.6151563,10.8857528 19.2195977,10.8857528 C21.6380075,10.8857528 23.8354719,11.3170061 25.8120569,12.1795257 C27.7886418,13.0420453 29.4629004,14.275909 30.8348829,15.8811537 C32.2068654,17.4863985 33.2649038,19.4150592 34.0090299,21.6671937 C34.753156,23.9193281 35.1252135,26.4349725 35.1252135,29.2142022 L35.1252135,32.592387 L10.8482209,32.592387 C11.2667919,34.6528505 12.1736819,36.294009 13.5689184,37.5159117 C14.9641548,38.7378144 16.6849206,39.3487566 18.7312674,39.3487566 C20.452059,39.3487566 21.9054084,38.9534411 23.0913594,38.1627981 C24.2773104,37.3721552 25.3120952,36.3539182 26.195745,35.1080566 L33.5206996,40.6425295 Z M24.6609926,25.2610073 C24.7075004,23.4401326 24.1261606,21.8828289 22.9169557,20.5890496 C21.7077508,19.2952702 20.1497602,18.6483902 18.2429371,18.6483902 C17.08024,18.6483902 16.057082,18.8400584 15.1734322,19.2234004 C14.2897825,19.6067424 13.5340408,20.097892 12.9061844,20.696864 C12.278328,21.2958359 11.7900026,21.9906329 11.4411934,22.7812759 C11.0923843,23.5719188 10.8947288,24.3984877 10.8482209,25.2610073 L24.6609926,25.2610073 Z M40.8204944,10.2644494 L51.7968539,10.2644494 L67.3812135,35.7378876 L67.484764,10.2644494 L75.5617079,10.2644494 L75.5617079,46.9213483 L64.9995506,46.9213483 L49.0009888,20.8266067 L48.8974382,46.9213483 L40.8204944,46.9213483 L40.8204944,10.2644494 Z M101.138697,19.221573 C100.482873,18.3931644 99.594073,17.7804964 98.4722697,17.3835506 C97.3504663,16.9866048 96.2890837,16.7881348 95.2880899,16.7881348 C94.7013004,16.7881348 94.0972615,16.8571678 93.4759551,16.995236 C92.8546486,17.1333041 92.2678679,17.3490322 91.7155955,17.642427 C91.1633231,17.9358217 90.7146085,18.3241324 90.3694382,18.8073708 C90.0242679,19.2906092 89.8516854,19.8773898 89.8516854,20.5677303 C89.8516854,21.6722752 90.2658835,22.5179297 91.0942921,23.1047191 C91.9227008,23.6915086 92.9668252,24.1919979 94.2266966,24.6062022 C95.4865681,25.0204066 96.8413411,25.4346047 98.2910562,25.848809 C99.7407713,26.2630133 101.095544,26.849794 102.355416,27.6091685 C103.615287,28.3685431 104.659412,29.3867801 105.48782,30.6639101 C106.316229,31.9410401 106.730427,33.6496073 106.730427,35.7896629 C106.730427,37.8261675 106.350745,39.6037677 105.591371,41.1225169 C104.831996,42.641266 103.80513,43.9011186 102.510742,44.9021124 C101.216353,45.9031061 99.7148849,46.6452111 98.0062921,47.1284494 C96.2976993,47.6116878 94.4942117,47.8533034 92.5957753,47.8533034 C90.2141005,47.8533034 88.0050439,47.49088 85.9685393,46.7660225 C83.9320348,46.0411649 82.0336268,44.8676036 80.2732584,43.2453034 L86.0203146,36.9287191 C86.8487232,38.0332639 87.8928476,38.8875475 89.1527191,39.4915955 C90.4125906,40.0956435 91.7155888,40.3976629 93.0617528,40.3976629 C93.7175763,40.3976629 94.3820191,40.3200008 95.0551011,40.1646742 C95.7281831,40.0093475 96.332222,39.7763611 96.867236,39.4657079 C97.4022499,39.1550546 97.8337062,38.7581148 98.161618,38.2748764 C98.4895297,37.791638 98.6534831,37.2221156 98.6534831,36.5662921 C98.6534831,35.4617473 98.2306559,34.5902054 97.3849888,33.9516404 C96.5393216,33.3130755 95.477939,32.7694404 94.200809,32.3207191 C92.923679,31.8719978 91.5430187,31.4232831 90.0587865,30.9745618 C88.5745544,30.5258405 87.193894,29.9218015 85.916764,29.162427 C84.6396341,28.4030524 83.5782514,27.4020736 82.7325843,26.1594607 C81.8869171,24.9168477 81.4640899,23.2773136 81.4640899,21.240809 C81.4640899,19.2733385 81.8524006,17.547513 82.6290337,16.0632809 C83.4056668,14.5790488 84.4411621,13.3364544 85.7355506,12.3354607 C87.0299391,11.3344669 88.5227781,10.5837328 90.2141124,10.083236 C91.9054467,9.58273907 93.6485304,9.33249438 95.4434157,9.33249438 C97.5144373,9.33249438 99.5163948,9.62588471 101.449348,10.2126742 C103.382302,10.7994636 105.125385,11.7831841 106.678652,13.1638652 L101.138697,19.221573 Z M112.73636,10.2644494 L126.353258,10.2644494 C128.251695,10.2644494 130.046553,10.437032 131.737888,10.7822022 C133.429222,11.1273725 134.904803,11.7227823 136.164674,12.5684494 C137.424546,13.4141166 138.425524,14.5531614 139.16764,15.985618 C139.909757,17.4180746 140.280809,19.2215622 140.280809,21.3961348 C140.280809,23.5361905 139.935644,25.3310489 139.245303,26.780764 C138.554963,28.2304792 137.605759,29.3867822 136.397663,30.2497079 C135.189567,31.1126335 133.757132,31.7253016 132.100315,32.0877303 C130.443497,32.4501591 128.648639,32.6313708 126.715685,32.6313708 L120.813303,32.6313708 L120.813303,46.9213483 L112.73636,46.9213483 L112.73636,10.2644494 Z M120.813303,25.7970337 L126.197933,25.7970337 C126.92279,25.7970337 127.621749,25.7280007 128.294831,25.5899326 C128.967913,25.4518645 129.571952,25.218878 130.106966,24.8909663 C130.64198,24.5630545 131.073437,24.1143399 131.401348,23.544809 C131.72926,22.9752781 131.893213,22.2590605 131.893213,21.3961348 C131.893213,20.4641751 131.677485,19.713441 131.246022,19.1439101 C130.81456,18.5743792 130.262296,18.1342937 129.589213,17.8236404 C128.916131,17.5129872 128.165397,17.3145173 127.336989,17.2282247 C126.50858,17.1419322 125.7147,17.0987865 124.955326,17.0987865 L120.813303,17.0987865 L120.813303,25.7970337 Z M145.251236,2.17349895 L153.32818,10.2644494 L153.32818,46.9213483 L145.251236,46.9213483 L145.251236,2.17349895 Z M151.173027,4.31460674 C152.364473,4.31460674 153.33033,3.34874912 153.33033,2.15730337 C153.33033,0.965857618 152.364473,0 151.173027,0 C149.981581,0 149.015724,0.965857618 149.015724,2.15730337 C149.015724,3.34874912 149.981581,4.31460674 151.173027,4.31460674 Z M160.68027,10.2644494 L174.866697,10.2644494 C176.730616,10.2644494 178.499587,10.4456611 180.173663,10.8080899 C181.847739,11.1705187 183.31469,11.7745576 184.574562,12.6202247 C185.834433,13.4658919 186.835412,14.6049367 187.577528,16.0373933 C188.319644,17.4698499 188.690697,19.2560792 188.690697,21.3961348 C188.690697,23.9849118 188.017625,26.1853393 186.671461,27.9974831 C185.325297,29.809627 183.357856,30.957301 180.769079,31.4405393 L190.088629,46.9213483 L180.406652,46.9213483 L172.74391,32.2689438 L168.757213,32.2689438 L168.757213,46.9213483 L160.68027,46.9213483 L160.68027,10.2644494 Z M168.757213,25.4346067 L173.520539,25.4346067 C174.245397,25.4346067 175.013389,25.4087194 175.824539,25.3569438 C176.635689,25.3051683 177.369165,25.149844 178.024989,24.8909663 C178.680812,24.6320886 179.224447,24.2265196 179.65591,23.6742472 C180.087373,23.1219748 180.303101,22.3453533 180.303101,21.3443596 C180.303101,20.4123998 180.11326,19.6702949 179.733573,19.1180225 C179.353886,18.56575 178.870655,18.1429228 178.283865,17.8495281 C177.697076,17.5561334 177.024004,17.3576634 176.264629,17.2541124 C175.505255,17.1505613 174.76315,17.0987865 174.038292,17.0987865 L168.757213,17.0987865 L168.757213,25.4346067 Z M225.067666,40.6425295 C223.393382,42.8467462 221.277305,44.547801 218.719372,45.7457449 C216.161438,46.9436887 213.510529,47.5426517 210.766564,47.5426517 C208.162123,47.5426517 205.708869,47.1113984 203.406729,46.2488788 C201.104588,45.3863592 199.10478,44.1524955 197.407242,42.5472508 C195.709704,40.942006 194.372623,39.0133453 193.395957,36.7612108 C192.419292,34.5090764 191.930966,31.993432 191.930966,29.2142022 C191.930966,26.4349725 192.419292,23.9193281 193.395957,21.6671937 C194.372623,19.4150592 195.709704,17.4863985 197.407242,15.8811537 C199.10478,14.275909 201.104588,13.0420453 203.406729,12.1795257 C205.708869,11.3170061 208.162123,10.8857528 210.766564,10.8857528 C213.184974,10.8857528 215.382438,11.3170061 217.359023,12.1795257 C219.335608,13.0420453 221.009867,14.275909 222.381849,15.8811537 C223.753832,17.4863985 224.81187,19.4150592 225.555996,21.6671937 C226.300122,23.9193281 226.67218,26.4349725 226.67218,29.2142022 L226.67218,32.592387 L202.395187,32.592387 C202.813758,34.6528505 203.720648,36.294009 205.115885,37.5159117 C206.511121,38.7378144 208.231887,39.3487566 210.278234,39.3487566 C211.999025,39.3487566 213.452375,38.9534411 214.638326,38.1627981 C215.824277,37.3721552 216.859062,36.3539182 217.742711,35.1080566 L225.067666,40.6425295 Z M216.207959,25.2610073 C216.254467,23.4401326 215.673127,21.8828289 214.463922,20.5890496 C213.254717,19.2952702 211.696726,18.6483902 209.789903,18.6483902 C208.627206,18.6483902 207.604048,18.8400584 206.720399,19.2234004 C205.836749,19.6067424 205.081007,20.097892 204.453151,20.696864 C203.825294,21.2958359 203.336969,21.9906329 202.98816,22.7812759 C202.639351,23.5719188 202.441695,24.3984877 202.395187,25.2610073 L216.207959,25.2610073 Z" id="Combined-Shape"></path>
        </g>
    </g>
</svg>